<svg xmlns="http://www.w3.org/2000/svg" width="76.559" height="76.564" viewBox="0 0 76.559 76.564"><path fill="#007A87" d="M16.814 42.636c-11.223 9.345-18.428-9.197-16.161-17.957 2.387-9.227 14.381-13.55 22.904-13.44 7.335.095 20.107 6.578 14.855 16.05-.987 1.779-2.879 1.129-4.001 2.419-2.106 2.399-4.941 4.154-8.078 4.808-2.493.52-6.549-.997-8.539.858-1.861 1.732.914 6.051-.98 7.262-10.097 6.458-.927-4.477 0 0z"/><path fill="#FF5A60" d="M56.319 12.948c4.453-1.205 4.162 5.369.838 5.626-3.12.242-3.485-4.911-.838-5.626zm-45.29 48.209c.723-.779 4.273-2.595 5.306-1.162.167.232-3.59 3.646-3.942 3.951-1.648 1.431-4.071-.54-5.183-1.917-4.572-5.664 6.549-8.297 9.98-8.699 2.351-.275 4.827-.427 7.183-.11 1.402.188 4.846 1.197 6.088.311.498-.355.483-13.612 3.894-7.853 1.841 3.108 1.325 8.599 5.177 9.845 4.813 1.556 9.866 1.907 14.696 3.489 1.518.497 5.289 2.307 6.879 1.344.519-.316.262-5.021.297-5.678.129-2.422.396-4.825.547-7.245.084-1.347.165-2.76.605-4.05.742-2.174 2.386-.645 3.459-1.822.218-.242-4.725-7.165-5.164-7.948-1.142-2.038-2.038-8.455-5.425-7.96-4.276.624-8.194 4.714-11.186 7.516-4.102 3.841-8.201 8.199-13.324 10.686-3.929 1.908-7.958 1.804-10.173-2.442-2.016-3.865 4.67-4.539 7.198-6.093 5.278-3.245 10.697-6.114 15.836-9.61 4.324-2.941 10.124-9.257 14.963-4.266 3.283 3.386 4.235 8.487 5.702 12.8.701 2.059 1.5 4.115 2.681 5.952.815 1.267 3.525 2.799 3.774 4.24.395 2.282-2.709.703-3.564 1.555-.778.776-.655 2.472-.658 3.457-.011 4.031.617 8.059.319 12.09-.252 3.399-1.192 5.291-4.776 4.512-6.609-1.436-13.067-3.503-19.625-5.145-5.43-1.361-29.829-9.711-31.564.252zm35.593-16.845c-3.445 1.856-1.962 9.16-7.611 7.6-3.424-.946-.43-6.644.156-8.631.783-2.654-3.928-3.45 1.134-5.045 7.98-2.514.519 5.611 1.532 7.633-.725-1.451 5.62-8.026 7.183-8.021 6.597.022-.451 7.237 3.233 8.978.462.218 1.178-5.231 1.16-5.646-.112-2.59-2.917-3.288-2.648-6.183.222-2.395 2.157-3.871 4.481-2.896 2.43 1.022 5.73 1.284 4.413 4.186-2.315 5.103.863 11.118-2.905 16.42-1.802 2.535-4.711 2.635-7.266 1.05-3.23-2.004-3.673-6.036-2.862-9.445z"/><path fill="#007A87" d="M18.729 42.756c2.423-1.324 5.073 4.369 3.95 7.303-2.632 6.881-7.548-5.338-3.95-7.303z"/><path fill="#FF5A60" d="M73.079 43.834c.652-.331 3.035.908 2.274 2.275-.997 1.791-4.275-1.258-2.274-2.275z"/></svg>